<svg id="Layer_1" data-name="Layer 1" xmlns="http://www.w3.org/2000/svg" viewBox="0 0 1155 1000">
    <defs>
        <style>
            .cls-1 {
                fill: #efebbb;
            }
        </style>
    </defs>
    <path class="cls-1"
        d="M378.77,900.43A41.59,41.59,0,1,1,420.35,942,41.64,41.64,0,0,1,378.77,900.43Zm74.77,0a33.19,33.19,0,1,0-33.19,33.19A33.23,33.23,0,0,0,453.54,900.43Z" />
    <path class="cls-1"
        d="M475.51,900.43A41.58,41.58,0,1,1,517.09,942,41.64,41.64,0,0,1,475.51,900.43Zm74.77,0a33.19,33.19,0,1,0-33.19,33.19A33.23,33.23,0,0,0,550.28,900.43Z" />
    <path class="cls-1"
        d="M546,845.43l-.31.18a2.84,2.84,0,0,1-2.64.12q-1.42-.69-2.91-1.29a2.86,2.86,0,0,1-.34-5.12l14.6-8.43a2.86,2.86,0,0,1,4.29,2.48v64.2a2.86,2.86,0,0,1-2.86,2.86h-2.68a2.86,2.86,0,0,1-2.86-2.86V847.91A2.86,2.86,0,0,0,546,845.43Z" />
    <path class="cls-1"
        d="M701.23,886.26v54.33a2.87,2.87,0,0,1-2.87,2.86H695.7a2.87,2.87,0,0,1-2.81-2.28,2.9,2.9,0,0,1,0-.58V886.26h0a33.18,33.18,0,0,0-66.3-2.06,2.18,2.18,0,0,1-2.19,2.06h-4.07a2.13,2.13,0,0,1-2.14-2.25v0a41.58,41.58,0,0,1,83.1,2.28Z" />
    <path class="cls-1"
        d="M636.61,844.44c-1,.39-1.91.82-2.85,1.26a2.93,2.93,0,0,1-2.7-.09l-.31-.17a2.85,2.85,0,0,0-4.29,2.47v92.67a2.87,2.87,0,0,1-2.86,2.87h-2.67a2.86,2.86,0,0,1-2.8-2.29,2.24,2.24,0,0,1-.06-.58V833.37a2.85,2.85,0,0,1,4.29-2.47L637,839.32A2.86,2.86,0,0,1,636.61,844.44Z" />
    <circle class="cls-1" cx="588.37" cy="936.56" r="5.45" />
    <path class="cls-1"
        d="M602.62,843.69a22.21,22.21,0,0,0-2.69,1.19,2.81,2.81,0,0,1-2.75,0l-.32-.18a2.85,2.85,0,0,0-4.29,2.47v67.37a2.87,2.87,0,0,1-2.86,2.87H587a2.87,2.87,0,0,1-2.86-2.87V847.12a2.85,2.85,0,0,0-4.29-2.47l-.31.18a2.82,2.82,0,0,1-2.73.06,24.11,24.11,0,0,0-2.7-1.2,2.86,2.86,0,0,1-.46-5.16l10.5-6,2.68-1.56h0l.06,0a2.92,2.92,0,0,1,2.89,0l.06,0,2.68,1.56,10.5,6A2.86,2.86,0,0,1,602.62,843.69Z" />
    <path class="cls-1"
        d="M853.09,267.46,743,458.11h0l-8.71,15.09A224.58,224.58,0,0,1,506.75,582.89a22.7,22.7,0,0,1-18.64-28.3h0a22.76,22.76,0,0,1,25.48-16.49,179.3,179.3,0,0,0,180-85.09l1.43-2.51L831.72,213.83l18.46-32H819.41a11.65,11.65,0,0,1-9.6-5.12q-7.53-11-15.9-21.34a11.56,11.56,0,0,1,9-18.85H908.61a11.58,11.58,0,0,1,10,17.37Z" />
    <path class="cls-1"
        d="M602.84,700.86,550,792.35a11.57,11.57,0,0,1-20,0L464.41,678.82,345.65,473.18a224,224,0,0,1,18.8-252,22.69,22.69,0,0,1,33.8-2h0a22.75,22.75,0,0,1,1.52,30.33,177.19,177.19,0,0,0-14.89,21.85,179.39,179.39,0,0,0-2,175.57l2.05,3.53L521.52,687.1l18.48,32,15.39-26.65a11.65,11.65,0,0,1,9.26-5.75q13.33-1,26.38-3A11.55,11.55,0,0,1,602.84,700.86Z" />
    <path class="cls-1"
        d="M302.48,136.56l220.15,0v0H540A224.53,224.53,0,0,1,748.81,278.79a22.7,22.7,0,0,1-15.18,30.29h0a22.76,22.76,0,0,1-27-13.82A179.27,179.27,0,0,0,542.89,181.88H229.82l15.38,26.65a11.65,11.65,0,0,1,.37,10.87q-5.77,12-10.53,24.45a11.56,11.56,0,0,1-20.81,1.64l-52.86-91.56a11.57,11.57,0,0,1,10-17.36Z" />
</svg>